<?xml version="1.0" encoding="UTF-8"?>
<svg width="175px" height="63px" viewBox="0 0 175 63" version="1.1" xmlns="http://www.w3.org/2000/svg" xmlns:xlink="http://www.w3.org/1999/xlink">
    <!-- Generator: Sketch 50.2 (55047) - http://www.bohemiancoding.com/sketch -->
    <title>Group 2</title>
    <desc>Created with Sketch.</desc>
    <defs></defs>
    <g id="Page-1" stroke="none" stroke-width="1" fill="none" fill-rule="evenodd">
        <g id="Tablet" transform="translate(-545.000000, -43.000000)">
            <g id="Group-2" transform="translate(545.000000, 43.000000)">
                <path d="M0,4.41825593 L0,0 L26.7568774,0 L26.7568774,4.41825593 L16.4225644,4.41825593 L16.4225644,27.032187 L10.3347504,27.032187 L10.3347504,4.41825593 L0,4.41825593 Z M37.2433028,0 L44.9094335,0 L58.7763415,27.032187 L51.5611168,27.032187 L48.4419556,20.9669232 L32.8091146,20.9669232 L29.9530972,27.032187 L23.4140128,27.032187 L37.2433028,0 Z M78.7335786,0 L86.2116191,0 L74.2616994,12.1681441 L87.6397918,27.032187 L79.5978454,27.032187 L67.2717454,12.8048073 L67.2717454,27.032187 L61.1836035,27.032187 L61.1836035,0 L67.2717454,0 L67.2717454,11.7937581 L78.7335786,0 Z M89.8965088,0 L95.9842862,0 L95.9842862,16.5116245 C95.9842862,21.0039296 98.8778122,23.550074 103.537782,23.550074 C108.047206,23.550074 111.053732,21.3412729 111.053732,16.3612745 L111.053732,0 L117.141509,0 L117.141509,16.2490568 C117.141509,22.4268071 114.548709,27.7439024 102.59806,27.7439024 C96.0214669,27.7439024 89.8965088,24.4111618 89.8965088,17.3348452 L89.8965088,0 Z M152.543643,0 L162.690303,0 L162.690303,27.032187 L156.602161,27.032187 L156.602161,3.81903496 L156.527071,3.81903496 L145.929505,27.032187 L138.489009,27.032187 L127.628627,3.81903496 L127.553537,3.81903496 L127.553537,27.032187 L122.066846,27.032187 L122.066846,0 L132.213142,0 L142.472073,22.0149788 L152.543643,0 Z M168.911858,0 L175,0 L175,27.032187 L168.911858,27.032187 L168.911858,0 Z M46.2625159,16.5490668 L40.6256444,4.79264193 L34.9881168,16.5490668 L46.2625159,16.5490668 Z" id="Clip-2" fill="#000000"></path>
                <path d="M40.6532881,46.5456948 L37.4969246,58.2776302 L35.0310157,58.2776302 L32.6089451,49.4898307 L32.5541471,49.4898307 L30.1539957,58.2776302 L27.710006,58.2776302 L24.5426829,46.5456948 L26.9099555,46.5456948 L29.0141978,55.7795755 L29.0580362,55.7795755 L31.4581876,46.5456948 L33.7377834,46.5456948 L36.1488944,55.7795755 L36.2036924,55.7795755 L38.3079347,46.5456948 L40.6532881,46.5456948 Z M47.0536917,58.5006708 C43.7548535,58.5006708 41.5848537,56.1922006 41.5848537,52.4116625 C41.5848537,48.6422764 43.7658131,46.3338062 47.0536917,46.3338062 C50.3415703,46.3338062 52.5225298,48.6422764 52.5225298,52.4116625 C52.5225298,56.1922006 50.3525299,58.5006708 47.0536917,58.5006708 Z M47.0536917,56.5156095 C48.9168229,56.5156095 50.1114188,55.0212375 50.1114188,52.4116625 C50.1114188,49.8132396 48.9058633,48.3188676 47.0536917,48.3188676 C45.2015201,48.3188676 43.9959646,49.8132396 43.9959646,52.4116625 C43.9959646,55.0212375 45.2015201,56.5156095 47.0536917,56.5156095 Z M54.3527822,58.2776302 L54.3527822,46.5456948 L56.6104589,46.5456948 L56.6104589,48.5419082 L56.6652568,48.5419082 C57.0488427,47.1702085 58.0790446,46.3561103 59.4380344,46.3561103 C59.7777819,46.3561103 60.073691,46.4118705 60.2490445,46.4453265 L60.2490445,48.6868845 C60.0627314,48.6088203 59.6462668,48.5530602 59.1859638,48.5530602 C57.66258,48.5530602 56.7200548,49.590199 56.7200548,51.2518514 L56.7200548,58.2776302 L54.3527822,58.2776302 Z M61.805307,58.2776302 L61.805307,42.1852511 L64.1725796,42.1852511 L64.1725796,58.2776302 L61.805307,58.2776302 Z M70.9346499,58.4783667 C68.0193976,58.4783667 66.0905088,56.1141364 66.0905088,52.4116625 C66.0905088,48.7091886 68.0193976,46.3561103 70.9127308,46.3561103 C72.5676296,46.3561103 73.8827811,47.2036646 74.5293972,48.4973 L74.5732356,48.4973 L74.5732356,42.1852511 L76.9514678,42.1852511 L76.9514678,58.2776302 L74.6499528,58.2776302 L74.6499528,56.2814169 L74.6061144,56.2814169 C73.9266195,57.6196604 72.611468,58.4783667 70.9346499,58.4783667 Z M71.5593469,48.3857797 C69.6852561,48.3857797 68.5125794,49.9470639 68.5125794,52.4116625 C68.5125794,54.8874131 69.6852561,56.4375453 71.5593469,56.4375453 C73.3786397,56.4375453 74.5951548,54.8651091 74.5951548,52.4116625 C74.5951548,49.98052 73.3786397,48.3857797 71.5593469,48.3857797 Z M93.818285,50.5827296 L91.5606084,50.5827296 C91.3194973,49.3337023 90.3988912,48.3411716 88.8535883,48.3411716 C87.0233359,48.3411716 85.8177804,49.8913038 85.8177804,52.4116625 C85.8177804,54.9877814 87.0342955,56.4821534 88.8755075,56.4821534 C90.3331337,56.4821534 91.2866185,55.6680552 91.5606084,54.3075076 L93.8402042,54.3075076 C93.5881335,56.8055623 91.6263659,58.5006708 88.8535883,58.5006708 C85.5547501,58.5006708 83.4066694,56.2033527 83.4066694,52.4116625 C83.4066694,48.6868845 85.5547501,46.3338062 88.8316691,46.3338062 C91.8017194,46.3338062 93.6100527,48.2742594 93.818285,50.5827296 Z M105.402577,46.5456948 L105.402577,58.2776302 L103.133941,58.2776302 L103.133941,56.2925689 L103.079143,56.2925689 C102.443487,57.6977247 101.27081,58.4895188 99.506315,58.4895188 C96.9965676,58.4895188 95.4622243,56.8278663 95.4622243,54.1402271 L95.4622243,46.5456948 L97.8294969,46.5456948 L97.8294969,53.6718419 C97.8294969,55.4561667 98.6624261,56.4152412 100.295406,56.4152412 C102.005103,56.4152412 103.035305,55.210822 103.035305,53.3818891 L103.035305,46.5456948 L105.402577,46.5456948 Z M113.742829,46.3561103 C116.669041,46.3561103 118.59793,48.6980366 118.59793,52.4116625 C118.59793,56.1252884 116.680001,58.4783667 113.786668,58.4783667 C112.131769,58.4783667 110.816617,57.6531165 110.159042,56.348329 L110.104244,56.348329 L110.104244,62.1585366 L107.736971,62.1585366 L107.736971,46.5456948 L110.027526,46.5456948 L110.027526,48.5642122 L110.071365,48.5642122 C110.75086,47.2148166 112.076971,46.3561103 113.742829,46.3561103 Z M113.118132,56.4375453 C114.992223,56.4375453 116.1649,54.8762611 116.1649,52.4116625 C116.1649,49.9582159 114.992223,48.3857797 113.118132,48.3857797 C111.309799,48.3857797 110.093284,49.991672 110.093284,52.4116625 C110.093284,54.853957 111.29884,56.4375453 113.118132,56.4375453 Z M124.888738,46.9025598 C124.888738,44.003032 127.179293,41.8841463 130.324697,41.8841463 C133.338586,41.8841463 135.585303,43.8357516 135.585303,46.3895664 C135.585303,48.2631074 134.598939,49.6571111 132.286465,52.0659496 L128.330051,56.1141364 L128.330051,56.1698966 L135.837373,56.1698966 L135.837373,58.2776302 L125.020253,58.2776302 L125.020253,56.5825217 L130.730202,50.6607938 C132.659091,48.6199724 133.163232,47.7724181 133.163232,46.5122387 C133.163232,45.0847789 131.891919,43.9472719 130.24798,43.9472719 C128.516364,43.9472719 127.212172,45.2186033 127.212172,46.8914077 L127.212172,46.9248638 L124.888738,46.9248638 L124.888738,46.9025598 Z M143.78308,58.578735 C139.99106,58.578735 137.744343,55.3446464 137.744343,50.2147126 C137.744343,45.118235 140.012979,41.8841463 143.78308,41.8841463 C147.56414,41.8841463 149.799898,45.107083 149.799898,50.2035606 C149.799898,55.3334943 147.5751,58.578735 143.78308,58.578735 Z M143.78308,56.4821534 C146.040757,56.4821534 147.323029,54.106771 147.323029,50.2147126 C147.323029,46.3784144 146.018838,43.980728 143.78308,43.980728 C141.547323,43.980728 140.232171,46.3895664 140.232171,50.2147126 C140.232171,54.095619 141.525403,56.4821534 143.78308,56.4821534 Z M155.992069,58.2776302 L155.992069,44.6610018 L155.937271,44.6610018 L151.805504,47.6497458 L151.805504,45.1962992 L155.97015,42.1852511 L158.392221,42.1852511 L158.392221,58.2776302 L155.992069,58.2776302 Z M167.948988,58.578735 C164.419998,58.578735 161.965049,56.6494338 161.965049,53.9283386 C161.965049,51.8763651 163.389796,50.2370167 165.483079,49.7909355 L165.483079,49.7351753 C163.729544,49.244486 162.600705,47.8504823 162.600705,46.1219177 C162.600705,43.6796231 164.847422,41.8841463 167.948988,41.8841463 C171.061513,41.8841463 173.286311,43.6684711 173.286311,46.1330697 C173.286311,47.8393303 172.168432,49.222182 170.414897,49.7351753 L170.414897,49.7909355 C172.519139,50.2370167 173.932927,51.8875171 173.932927,53.9283386 C173.932927,56.6605859 171.456058,58.578735 167.948988,58.578735 Z M167.948988,56.5713696 C169.965553,56.5713696 171.390301,55.3892545 171.390301,53.7499061 C171.390301,52.0882536 169.965553,50.9061385 167.948988,50.9061385 C165.932422,50.9061385 164.496715,52.0994057 164.496715,53.7499061 C164.496715,55.3892545 165.932422,56.5713696 167.948988,56.5713696 Z M167.948988,48.8987731 C169.647725,48.8987731 170.86424,47.8504823 170.86424,46.3895664 C170.86424,44.9174985 169.658685,43.8692077 167.948988,43.8692077 C166.228331,43.8692077 165.033735,44.9174985 165.033735,46.3895664 C165.033735,47.8504823 166.228331,48.8987731 167.948988,48.8987731 Z" id="world-cup-2018" fill="#E3DADA"></path>
            </g>
        </g>
    </g>
</svg>